<svg xmlns="http://www.w3.org/2000/svg" xmlns:xlink="http://www.w3.org/1999/xlink" width="66" height="66" viewBox="0 0 66 66"><defs><path id="5h7ca" d="M213 2467.498c-17.95 0-32.501 14.55-32.501 32.501 0 17.95 14.551 32.501 32.5 32.501 17.95 0 32.502-14.55 32.502-32.501 0-17.95-14.551-32.5-32.501-32.5z"/><path id="5h7cc" d="M224.05 2499.999c0 .82-.666 1.486-1.487 1.486h-16.138l6.385 6.376a1.487 1.487 0 0 1-2.103 2.102l-8.927-8.915c-.003-.003-.003-.01-.008-.012a1.471 1.471 0 0 1-.313-1.604c.074-.182.185-.344.321-.482l8.927-8.915a1.487 1.487 0 0 1 2.104 2.101l-6.386 6.377h16.138c.82 0 1.487.666 1.487 1.486z"/><clipPath id="5h7cb"><use fill="#fff" xlink:href="#5h7ca"/></clipPath></defs><g><g transform="translate(-180 -2467)"><g><use fill="#fff" fill-opacity="0" stroke="#c6cfd2" stroke-miterlimit="50" stroke-width="6" clip-path="url(&quot;#5h7cb&quot;)" xlink:href="#5h7ca"/></g><g><use fill="#c6cfd2" xlink:href="#5h7cc"/></g></g></g></svg>