<svg xmlns="http://www.w3.org/2000/svg" xmlns:xlink="http://www.w3.org/1999/xlink" width="66" height="66" viewBox="0 0 66 66"><defs><path id="oq34a" d="M1286 2467.498c17.95 0 32.501 14.55 32.501 32.501 0 17.95-14.551 32.501-32.501 32.501-17.95 0-32.501-14.55-32.501-32.501 0-17.95 14.551-32.5 32.5-32.5z"/><path id="oq34c" d="M1274.95 2499.999c0 .82.666 1.486 1.487 1.486h16.138l-6.386 6.376a1.487 1.487 0 0 0 2.104 2.102l8.926-8.915c.003-.003.003-.01.01-.012a1.472 1.472 0 0 0 .312-1.604 1.478 1.478 0 0 0-.322-.482l-8.926-8.915a1.487 1.487 0 0 0-2.104 2.101l6.386 6.377h-16.138c-.82 0-1.488.666-1.488 1.486z"/><clipPath id="oq34b"><use fill="#fff" xlink:href="#oq34a"/></clipPath></defs><g><g transform="translate(-1253 -2467)"><g><use fill="#fff" fill-opacity="0" stroke="#c6cfd2" stroke-miterlimit="50" stroke-width="6" clip-path="url(&quot;#oq34b&quot;)" xlink:href="#oq34a"/></g><g><use fill="#c6cfd2" xlink:href="#oq34c"/></g></g></g></svg>