<svg 
 xmlns="http://www.w3.org/2000/svg"
 xmlns:xlink="http://www.w3.org/1999/xlink"
 width="68px" height="68px">
<path fill-rule="evenodd"  fill="rgb(24, 163, 221)"
 d="M34.000,68.000 C15.222,68.000 -0.000,52.778 -0.000,34.000 C-0.000,15.222 15.222,-0.000 34.000,-0.000 C52.778,-0.000 68.000,15.222 68.000,34.000 C68.000,52.778 52.778,68.000 34.000,68.000 ZM46.878,32.346 C46.092,32.286 45.548,32.096 45.246,31.779 C44.944,31.462 44.793,30.895 44.793,30.079 L44.793,25.456 C44.793,22.072 43.765,19.532 41.710,17.839 C39.655,16.147 36.724,15.301 32.916,15.301 C28.896,15.301 25.315,16.314 22.172,18.338 L24.665,23.687 C25.935,22.841 27.143,22.199 28.292,21.761 C29.440,21.323 30.695,21.104 32.054,21.104 C33.505,21.104 34.555,21.375 35.205,21.920 C35.855,22.464 36.180,23.295 36.180,24.412 L36.180,25.138 C34.911,24.535 33.308,24.231 31.375,24.231 C29.863,24.231 28.480,24.429 27.226,24.821 C25.972,25.214 24.892,25.773 23.986,26.499 C23.079,27.224 22.369,28.085 21.854,29.082 C21.340,30.079 21.084,31.183 21.084,32.392 C21.084,33.479 21.296,34.493 21.719,35.429 C22.142,36.365 22.723,37.174 23.464,37.854 C24.205,38.534 25.088,39.071 26.116,39.463 C27.143,39.855 28.247,40.052 29.425,40.052 C30.996,40.052 32.477,39.697 33.868,38.987 C35.258,38.278 36.481,37.241 37.540,35.882 L37.721,36.743 C37.963,37.831 38.484,38.655 39.285,39.214 C40.085,39.772 41.257,40.052 42.798,40.052 C43.342,40.052 43.962,40.014 44.657,39.939 C45.351,39.863 46.092,39.749 46.878,39.598 L46.878,32.346 ZM46.915,45.082 L21.401,45.082 L21.401,52.699 L46.915,52.699 L46.915,45.082 ZM35.047,32.980 C34.623,33.253 34.140,33.473 33.596,33.637 C33.052,33.805 32.523,33.886 32.009,33.886 C31.193,33.886 30.520,33.676 29.992,33.253 C29.463,32.830 29.198,32.286 29.198,31.621 C29.198,30.836 29.546,30.185 30.241,29.671 C30.936,29.158 31.812,28.900 32.871,28.900 C33.354,28.900 33.897,28.962 34.502,29.082 C35.107,29.203 35.665,29.354 36.180,29.535 L36.180,31.303 C36.180,31.605 36.074,31.900 35.863,32.188 C35.650,32.476 35.379,32.739 35.047,32.980 Z"/>
</svg>